<?xml version="1.0" encoding="UTF-8" standalone="no"?>
<svg viewBox="0 0 800 700" xmlns="http://www.w3.org/2000/svg" xmlns:xlink="http://www.w3.org/1999/xlink">
<defs>
<filter id="filter4076">
<feGaussianBlur stdDeviation=".9389"/>
</filter>
<filter id="filter4207">
<feGaussianBlur stdDeviation=".7965"/>
</filter>
<filter id="filter4221">
<feGaussianBlur stdDeviation="1.4567"/>
</filter>
<filter id="filter4248">
<feGaussianBlur stdDeviation=".8837"/>
</filter>
<filter id="filter4270">
<feGaussianBlur stdDeviation="2.0715"/>
</filter>
<filter id="filter4324">
<feGaussianBlur stdDeviation="2.7803"/>
</filter>
<filter id="filter4491">
<feGaussianBlur stdDeviation=".927"/>
</filter>
<filter id="filter4626">
<feGaussianBlur stdDeviation="1.1921"/>
</filter>
<filter id="filter4641">
<feGaussianBlur stdDeviation=".5748"/>
</filter>
<filter id="filter4805"></filter>
<filter height="1.23928" id="filter4405" width="1.19685" x="-.09842" y="-.11964">
<feGaussianBlur stdDeviation="6.8545"/>
</filter>
<filter height="1.3087" id="filter4738" width="1.19631" x="-.09816" y="-.15435">
<feGaussianBlur stdDeviation="1.0638"/>
</filter>
<linearGradient id="linearGradient4791">
<stop offset="0" stop-color="#fff" stop-opacity="0"/>
<stop offset=".3537" stop-color="#fff"/>
<stop offset=".6711" stop-color="#fff"/>
<stop offset="1" stop-color="#fff" stop-opacity="0"/>
</linearGradient>
<linearGradient id="linearGradient4758">
<stop offset="0" stop-color="#fff" stop-opacity="0"/>
<stop offset=".4938" stop-color="#fff"/>
<stop offset=".5557" stop-color="#fff"/>
<stop offset="1" stop-color="#fff" stop-opacity="0"/>
</linearGradient>
<linearGradient id="linearGradient4517">
<stop offset="0" stop-color="#fc0"/>
<stop offset=".2473" stop-color="#fff"/>
<stop offset=".4441" stop-color="#520"/>
<stop offset=".558" stop-color="#520"/>
<stop offset=".7674" stop-color="#fc0"/>
<stop offset=".9402" stop-color="#520"/>
<stop offset="1" stop-color="#28170b"/>
</linearGradient>
<linearGradient id="linearGradient4495">
<stop offset="0" stop-color="#2b1100"/>
<stop offset="1" stop-color="#2b1100"/>
</linearGradient>
<linearGradient id="linearGradient4409">
<stop offset="0" stop-color="#fff6d5" stop-opacity=".0161"/>
<stop offset=".378" stop-color="#fff"/>
<stop offset="1" stop-color="#fff6d5" stop-opacity="0"/>
</linearGradient>
<linearGradient id="linearGradient4352">
<stop offset="0" stop-color="#45060b"/>
<stop offset=".2357" stop-color="#803300"/>
<stop offset=".4921" stop-color="#f60"/>
<stop offset=".7798" stop-color="#803300"/>
<stop offset="1" stop-color="#520"/>
</linearGradient>
<linearGradient id="linearGradient4298">
<stop offset="0"/>
<stop offset="1" stop-color="#000080"/>
</linearGradient>
<linearGradient id="linearGradient4230">
<stop offset="0" stop-color="#fc0"/>
<stop offset=".5" stop-color="#520"/>
<stop offset=".6888" stop-color="#592600"/>
<stop offset="1" stop-color="#fc0"/>
</linearGradient>
<linearGradient id="linearGradient4026">
<stop offset="0" stop-color="#fea"/>
<stop offset=".13" stop-color="#ffd42a"/>
<stop offset=".2337" stop-color="#540"/>
<stop offset=".7033" stop-color="#fc0"/>
<stop offset=".8599" stop-color="#806600"/>
<stop offset="1" stop-color="#fc0"/>
</linearGradient>
<linearGradient gradientUnits="userSpaceOnUse" id="linearGradient4017" x1="216.99477" x2="364.29914">
<stop offset="0" stop-color="#fff"/>
<stop offset=".2287" stop-color="#fff" stop-opacity=".5847"/>
<stop offset="1" stop-color="#fff" stop-opacity="0"/>
</linearGradient>
<linearGradient gradientUnits="userSpaceOnUse" id="linearGradient4066" x1="176.85074" x2="347.43051">
<stop offset="0" stop-color="#2b1100"/>
<stop offset="1" stop-color="#a40"/>
</linearGradient>
<linearGradient gradientTransform="matrix(.8306,-.60844,.62264,.81166,-370.04134,174.28428)" gradientUnits="userSpaceOnUse" id="linearGradient4105" x1="174.70129" x2="350.03317" y1="711.49298" y2="708.07648">
<stop offset="0" stop-color="#fff6d5"/>
<stop offset="1" stop-color="#806600"/>
</linearGradient>
<linearGradient gradientUnits="userSpaceOnUse" id="linearGradient4141" x1="225.50139" x2="356.28433" y1="490.2193" y2="682.36218">
<stop offset="0" stop-color="#fc0"/>
<stop offset=".32" stop-color="#fff"/>
<stop offset=".4265" stop-color="#520"/>
<stop offset=".5181" stop-color="#520"/>
<stop offset=".7197" stop-color="#fc0"/>
<stop offset=".9407" stop-color="#520"/>
<stop offset="1" stop-color="#28170b"/>
</linearGradient>
<linearGradient gradientUnits="userSpaceOnUse" id="linearGradient4181" x1="189.07281" x2="398.07004">
<stop offset="0" stop-color="#fff"/>
<stop offset="1" stop-color="#520"/>
</linearGradient>
<linearGradient gradientUnits="userSpaceOnUse" id="linearGradient4201" x1="241.64798" x2="340.01532" y1="641.9259" y2="546.37982">
<stop offset="0" stop-color="#540"/>
<stop offset="1" stop-color="#a80"/>
</linearGradient>
<linearGradient gradientUnits="userSpaceOnUse" id="linearGradient4280" x1="142.95613" x2="237.26093" y1="653.91541" y2="738.8399">
<stop offset="0" stop-color="#fd5"/>
<stop offset=".5" stop-color="#fff"/>
<stop offset="1" stop-color="#ffe680"/>
</linearGradient>
<linearGradient gradientUnits="userSpaceOnUse" id="linearGradient4330" x1="263.6906" x2="322.43799" y1="564.30896" y2="625.02325">
<stop offset="0" stop-color="#fff"/>
<stop offset="1" stop-color="#fff" stop-opacity="0"/>
</linearGradient>
<linearGradient gradientUnits="userSpaceOnUse" id="linearGradient4456" x1="428.92856" x2="550.64175" y1="374.14789" y2="515.2193">
<stop offset="0" stop-color="#fc0"/>
<stop offset=".2473" stop-color="#fff"/>
<stop offset=".4079" stop-color="#520"/>
<stop offset=".5181" stop-color="#520"/>
<stop offset=".7197" stop-color="#fc0"/>
<stop offset=".9132" stop-color="#520"/>
<stop offset="1" stop-color="#28170b"/>
</linearGradient>
<linearGradient gradientUnits="userSpaceOnUse" id="linearGradient4551" x1="843.82709" x2="886.26453" y1="116.50157" y2="165.25157">
<stop offset="0" stop-color="#a80"/>
<stop offset=".2473" stop-color="#fc0"/>
<stop offset=".5185" stop-color="#520"/>
<stop offset=".6359" stop-color="#520"/>
<stop offset=".7674" stop-color="#fc0"/>
<stop offset=".9402" stop-color="#520"/>
<stop offset="1" stop-color="#28170b"/>
</linearGradient>
<linearGradient gradientUnits="userSpaceOnUse" id="linearGradient4571" x1="813.82711" x2="867.87166" y1="128.82301" y2="192.57301">
<stop offset="0" stop-color="#a80"/>
<stop offset=".2473" stop-color="#fc0"/>
<stop offset=".4839" stop-color="#520"/>
<stop offset=".6359" stop-color="#520"/>
<stop offset=".7674" stop-color="#fc0"/>
<stop offset=".9402" stop-color="#520"/>
<stop offset="1" stop-color="#28170b"/>
</linearGradient>
<linearGradient gradientTransform="matrix(.8505,0,0,.71932,199.06173,-35.42392)" gradientUnits="userSpaceOnUse" id="linearGradient4647" x1="785.25568" x2="839.30023" y1="185.60872" y2="249.35872">
<stop offset="0" stop-color="#a80"/>
<stop offset=".2473" stop-color="#fc0"/>
<stop offset=".4495" stop-color="#520"/>
<stop offset=".695" stop-color="#520"/>
<stop offset=".8059" stop-color="#fc0"/>
<stop offset=".9402" stop-color="#520"/>
<stop offset="1" stop-color="#28170b"/>
</linearGradient>
<linearGradient gradientTransform="matrix(.8505,0,0,.71932,208.7817,-37.73601)" gradientUnits="userSpaceOnUse" id="linearGradient4649" x1="769.9342" x2="827.87164" y1="192.65805" y2="252.573">
<stop offset="0" stop-color="#2b1100"/>
<stop offset=".2473" stop-color="#fff"/>
<stop offset=".4441" stop-color="#520"/>
<stop offset=".558" stop-color="#520"/>
<stop offset=".7674" stop-color="#fc0"/>
<stop offset=".9402" stop-color="#520"/>
<stop offset="1" stop-color="#28170b"/>
</linearGradient>
<linearGradient gradientUnits="userSpaceOnUse" id="linearGradient4742" x1="873.62842" x2="891.81116" y1="97.43016" y2="110.18333">
<stop offset="0" stop-color="#fff" stop-opacity="0"/>
<stop offset=".2257" stop-color="#fff"/>
<stop offset=".5557" stop-color="#fff"/>
<stop offset="1" stop-color="#fff" stop-opacity="0"/>
</linearGradient>
<linearGradient gradientUnits="userSpaceOnUse" id="linearGradient3973" x1="733.10584" x2="787.47213" xlink:href="#linearGradient4352" y1="191.47147" y2="264.14241"/>
<linearGradient gradientUnits="userSpaceOnUse" id="linearGradient3997" x1="343.57144" x2="450" xlink:href="#linearGradient4352" y1="435.93362" y2="575.93359"/>
<linearGradient gradientUnits="userSpaceOnUse" id="linearGradient4001" x1="534.28931" x2="610.87897" xlink:href="#linearGradient4352" y1="317.60419" y2="424.62031"/>
<linearGradient gradientUnits="userSpaceOnUse" id="linearGradient4236" x1="314.98123" x2="363.53943" xlink:href="#linearGradient4230" y1="514.68121" y2="561.8241"/>
<linearGradient gradientUnits="userSpaceOnUse" id="linearGradient4284" x1="270.69552" x2="319.25372" xlink:href="#linearGradient4230" y1="695.3955" y2="742.53839"/>
<linearGradient gradientUnits="userSpaceOnUse" id="linearGradient4292" x1="270.69552" x2="328.53942" xlink:href="#linearGradient4230" y1="695.3955" y2="738.6098"/>
<linearGradient gradientUnits="userSpaceOnUse" id="linearGradient4415" x1="408.42674" x2="442.75673" xlink:href="#linearGradient4409" y1="461.99976" y2="506.99982"/>
<linearGradient gradientUnits="userSpaceOnUse" id="linearGradient4442" x1="555.90901" x2="590.239" xlink:href="#linearGradient4409" y1="346.84236" y2="391.84242"/>
<linearGradient gradientUnits="userSpaceOnUse" id="linearGradient4446" x1="728.6451" x2="762.97509" xlink:href="#linearGradient4409" y1="211.48192" y2="256.48198"/>
<linearGradient gradientUnits="userSpaceOnUse" id="linearGradient4464" x1="441.18845" x2="542.78461" xlink:href="#linearGradient4026" y1="361.3833" y2="460.83228"/>
<linearGradient gradientUnits="userSpaceOnUse" id="linearGradient4501" x1="465.32227" x2="504.26614" xlink:href="#linearGradient4495" y1="401.92798" y2="530.21735"/>
<linearGradient gradientUnits="userSpaceOnUse" id="linearGradient4515" x1="614.66986" x2="700.71362" xlink:href="#linearGradient4517" y1="247.80072" y2="366.19174"/>
<linearGradient gradientUnits="userSpaceOnUse" id="linearGradient4539" x1="614.66986" x2="700.71362" xlink:href="#linearGradient4026" y1="247.80072" y2="366.19174"/>
<linearGradient gradientUnits="userSpaceOnUse" id="linearGradient4543" x1="640.32227" x2="679.26614" xlink:href="#linearGradient4495" y1="239.07084" y2="367.36021"/>
<linearGradient gradientUnits="userSpaceOnUse" id="linearGradient4579" x1="809.9342" x2="867.87164" xlink:href="#linearGradient4517" y1="132.65805" y2="192.573"/>
<linearGradient gradientUnits="userSpaceOnUse" id="linearGradient4756" x1="862.51676" x2="878.67918" xlink:href="#linearGradient4758" y1="103.49109" y2="121.67382"/>
<linearGradient gradientUnits="userSpaceOnUse" id="linearGradient4789" x1="776.65377" x2="785.9977" xlink:href="#linearGradient4791" y1="180.01012" y2="192.88957"/>
<linearGradient gradientUnits="userSpaceOnUse" id="linearGradient4803" x1="860.47107" x2="876.63349" xlink:href="#linearGradient4758" y1="106.17709" y2="124.35982"/>
<linearGradient gradientUnits="userSpaceOnUse" id="linearGradient4811" x1="851.94297" x2="868.10539" xlink:href="#linearGradient4758" y1="113.69241" y2="131.87514"/>
<linearGradient gradientUnits="userSpaceOnUse" id="linearGradient4815" x1="689.56552" x2="705.72794" xlink:href="#linearGradient4758" y1="233.4832" y2="251.66593"/>
<linearGradient gradientUnits="userSpaceOnUse" id="linearGradient4819" x1="612.24551" x2="621.58944" xlink:href="#linearGradient4791" y1="304.75759" y2="317.63703"/>
<linearGradient gradientUnits="userSpaceOnUse" id="linearGradient4823" x1="431.19361" x2="440.53754" xlink:href="#linearGradient4791" y1="442.73007" y2="455.60951"/>
<linearGradient gradientUnits="userSpaceOnUse" id="linearGradient4840" x1="510.76852" x2="526.93094" xlink:href="#linearGradient4758" y1="369.85379" y2="388.03652"/>
<radialGradient cx="846.70844" cy="187.66205" gradientTransform="matrix(1.00478,.8265,-.41924,.50967,112.28829,-671.31639)" gradientUnits="userSpaceOnUse" id="radialGradient4865" r="30.23764">
<stop offset="0" stop-color="#fff"/>
<stop offset="1" stop-color="#2b2200" stop-opacity=".5517"/>
</radialGradient>
<radialGradient cx="245.02858" cy="604.30894" gradientUnits="userSpaceOnUse" id="radialGradient4288" r="75.92579" xlink:href="#linearGradient4298"/>
<radialGradient cx="268.55127" cy="677.34503" gradientTransform="matrix(.67814,-1.52763,2.05949,.91425,-1297.4291,443.86627)" gradientUnits="userSpaceOnUse" id="radialGradient4306" r="55.37956" xlink:href="#linearGradient4298"/>
</defs>
<g transform="translate(-149.07282,-51.9689)">
<path d="m818.29133,136.31876 43.03571-32.23214c31.38654-6.30052 44.35691,22.4049 42.85714,43.57142l-45,41.25c1.5311-38.39843-22.46267-42.46814-40.89285-52.58928z" fill="url(#linearGradient4551)"/>
<path d="m651.40185,251.38968 156.78746-114.72311c41.30076-8.07375 64.6172,31.2965 49.07466,60.45052l-150.66513,125.91975-54.4827-73.07572" fill="url(#linearGradient3973)"/>
<path d="m452.58532,377.52239 156.78746-114.72311c62.12239-20.0242 111.83851,56.69532 78.36037,101.16481l-156.37941,128.77689-78.05413-116.64715" fill="url(#linearGradient4001)"/>
<path d="m267.85714,488.79075 135.71429-97.85714c84.00747-18.30566 157.99952,77.8345 105,139.28571l-130,110.71429-110.71429-152.14286" fill="url(#linearGradient3997)"/>
<path d="m369.87773,530.86878c38.2072,49.06478 35.01675,113.49301-7.12605,143.90447s-107.27934,15.28997-145.48653-33.77482-35.01677-113.49301 7.12604-143.90448 107.27935-15.28996 145.48654,33.77483z" fill="url(#linearGradient4141)" fill-rule="evenodd" stroke="url(#linearGradient4181)" stroke-width="3"/>
<path d="m361.1735,536.32149c36.35245,47.3885 33.31688,109.61555-6.78013,138.98801s-102.07153,14.76759-138.42398-32.62091-33.3169-109.61555 6.78011-138.98801 102.07155-14.76758 138.424,32.62091z" fill="#fc0" fill-rule="evenodd" stroke="url(#linearGradient4105)" stroke-opacity=".5847" stroke-width="3"/>
<path d="m228.74852,520.80814c-30.90295,21.59078-27.01367,73.90238 3.45112,111.77955s80.34379,48.04622 111.24334,26.4578 27.94474-67.90724-2.52212-105.787-81.26939-54.04115-112.17234-32.45035z" fill="url(#linearGradient4201)" fill-rule="evenodd" filter="url(#filter4207)" stroke="#efe460" stroke-width="3"/>
<path d="m235.31451,524.34367c-30.90295,21.59078-22.46798,68.85162 7.99681,106.72879s70.24226,33.90409 101.14181,12.31567 26.93459-52.24988-3.53227-90.12964-74.7034-50.50562-105.60635-28.91482z" fill-rule="evenodd" filter="url(#filter4207)"/>
<path d="m233.39086,518.35065c-29.52413,20.56925-24.88836,72.42611 4.21715,108.51118s77.28663,45.6774 106.80751,25.1104 26.69791-64.69431-2.40959-100.78184-79.09095-53.409-108.61507-32.83974z" fill="url(#radialGradient4288)" fill-rule="evenodd"/>
<path d="m263.52427,558.1114c-21.53462,15.00301-18.15334,52.82692 3.07595,79.14703s56.37214,33.31667 77.90439,18.31529 19.47321-47.18742-1.75753-73.50933-57.6882-38.95602-79.22281-23.95299z" fill="url(#radialGradient4306)" fill-rule="evenodd" filter="url(#filter4324)"/>
<path d="m263.52427,558.1114c-21.53462,15.00301-18.15334,52.82692 3.07595,79.14703s56.37214,33.31667 77.90439,18.31529 19.47321-47.18742-1.75753-73.50933-57.6882-38.95602-79.22281-23.95299z" fill="url(#linearGradient4330)" fill-rule="evenodd"/>
<path d="m259.37928,512.38674c-7.68909.29185-15.00059,2.66615-21.6875,6.6875-29.52413,20.56925-25.32427,68.25868 3.78125,104.34375 15.42076,19.11869 34.7238,30.9566 53.84375,34.8125-40.57567-49.75919-69.77985-99.06128-35.9375-145.84375zm22.625,1.75c-24.41696,29.53926-1.13089,97.70117 26.6875,145.46875 12.28183.0415 24.07311-3.38806 34.28125-10.5 29.52089-20.567 26.70125-59.69372-2.40625-95.78125-16.55489-20.52478-37.76875-34.26278-58.5625-39.1875z" fill="url(#linearGradient4017)" fill-rule="evenodd"/>
<path d="m262.31232,512.29746c-10.62079.21614-16.70081,2.28186-25.36161,7.44196-1.51331.90163-4.3915,3.50512-5.08929,5.1384 36.8769-6.27744 82.35622,9.54181 112.58036,39.18303 5.31964,5.21704 9.90491,10.60488 13.8125,16.0625-3.87036-9.10139-9.30136-18.16631-16.25-26.78125-20.92102-25.93792-52.54994-41.59701-79.69196-41.04464z" fill="#fff" fill-rule="evenodd" filter="url(#filter4221)" opacity=".8123"/>
<path d="m262.15625,604.96875c-46.01988,0-83.84375,45.85547-83.84375,103.09375s37.825,103.125 83.84375,103.125 83.8125-45.8858 83.8125-103.125-37.79262-103.09375-83.8125-103.09375z" fill="none" filter="url(#filter4076)" stroke="url(#linearGradient4066)" stroke-opacity=".5847" stroke-width="3.89802" transform="matrix(.8306,-.60844,.62264,.81166,-370.04134,174.28428)"/>
<path d="m309.62407,518.8965c20.82809,13.75344 37.01502,30.02163 47.83432,49.97192l9.47389-10.66262c-10.03613-19.9009-25.26798-36.7239-47.65573-49.49747l-9.11676,10.0096" fill="url(#linearGradient4236)" filter="url(#filter4248)"/>
<path d="m147.92764,667.20007c24.80413,1.36471 68.82176,36.33655 75.60218,66.66835l8.7596-1.91262c-.40129-26.78613-53.16667-70.98047-81.76287-73.06889l-2.59891,8.31316z" fill="url(#linearGradient4280)" filter="url(#filter4270)" transform="matrix(0,1,1,0,-458.72448,443.36734)"/>
<path d="m267.48122,689.61079c24.60901,6.82176 36.54828,26.47256 39.97717,59.97192l10.90247-7.09119c-2.35586-19.47422-10.1286-47.62886-41.94145-60.92604l-7.68819,7.86674" fill="url(#linearGradient4284)" filter="url(#filter4248)" transform="matrix(0,1,-1,0,1053.4951,365.51017)"/>
<path d="m265.96336,695.59293c17.0655,1.82176 49.19833,12.27613 55.4236,45.77549l8.04533,6.48024c5.20519-28.79902-30.21051-67.10466-70.51288-64.14032l7.04395,11.88459z" fill="url(#linearGradient4292)" filter="url(#filter4248)" transform="matrix(-1,0,0,1,528.34205,-190.35717)"/>
<path d="m348.44888,503.24978c15.8282,11.79214 28.28008,27.80466 40.35714,44.28572l126.78572-91.42857c-10.30562-19.1651-23.1659-35.45622-41.07143-46.07143l-126.07143,93.21428" fill="url(#linearGradient4415)" filter="url(#filter4405)"/>
<path d="m495.93115,388.09238c15.8282,11.79214 28.28008,27.80466 40.35714,44.28572l153.04969-117.69254c-10.30562-19.1651-22.15575-27.375-40.06128-37.99021l-153.34555,111.39703" fill="url(#linearGradient4442)" filter="url(#filter4405)"/>
<path d="m679.77892,256.77255c15.8282,11.79214 18.17855,15.68283 30.25561,32.16389l143.95832-116.68239c-10.30562-19.1651-5.99331-13.23286-23.89884-23.84807l-149.30494,112.40718" fill="url(#linearGradient4446)" filter="url(#filter4405)"/>
<path d="m437.49503,391.82649c60.46897,4.44707 128.22182,92.0827 51.26524,153.03811 67.27516-69.22391 11.42475-144.03129-51.26524-153.03811" fill="url(#linearGradient4501)" filter="url(#filter4491)"/>
<path d="m441.09375,373.3125c-14.53993.0589-28.49402,4.1916-40.21875,12.8125-5.66135,4.16265-11.5886,10.88534-16.24675,16.42664 1.73022-.50578 2.35992-1.34261 2.86729-1.70343 33.23601-23.63622 85.07955-12.96378 115.55357,25.60268s26.62886,85.32807-4.46429,113.07143c-3.46766,3.09408-7.97231,7.42124-10.38077,9.58798 9.98041-1.74729 17.59979-8.67946 25.92095-14.7978 34.1083-25.07897 36.39883-78.57945 5.125-119.5-20.52345-26.85411-50.3982-41.61239-78.15625-41.5z" fill="url(#linearGradient4456)" fill-rule="evenodd" stroke="url(#linearGradient4464)" stroke-width="3"/>
<path d="m602.0486,268.61221c55.35539-29.64648 128.56681,43.6623 67.98551,109.53321 71.74024-59.42819-13.04198-143.83314-67.98551-109.53321z" fill="url(#linearGradient4543)" filter="url(#filter4491)"/>
<path d="m643.13389,250.32151c-10.75208.0437-25.49035,2.09873-34.16063,8.49282-4.1865,3.08742-10.248,8.02321-13.13239,12.13317 1.12211-1.16066 2.24925-1.8063 2.62445-2.07392 24.57758-17.53089 62.93971-10.26288 84.56064,19.03882 21.10656,28.6046 18.22463,67.10566-5.37482,85.93264-2.86626,2.28662-2.07494,1.47314-7.88681,6.22279 6.74904.4718 13.53896-5.68495 19.51061-10.45952 24.84382-19.86366 29.98279-60.17611 6.85622-90.52673-15.17681-19.91758-32.47057-28.84343-52.99727-28.76007z" fill="url(#linearGradient4515)" fill-rule="evenodd" stroke="url(#linearGradient4539)" stroke-width="3"/>
<path d="m803.24668,139.80091c.13036-.5251.20862-.99811.79812-1.98236 3.94227-4.3873 10.06255-8.25673 12.10367-8.73192 40.70956-1.2538 58.93461,35.6892 53.75,59.10713-2.8345,4.40995-7.05305,8.19633-11.43811,10.75523-1.14265.64108-2.26895,1.10227-3.29404.45013 1.02944-.60565 2.57348-2.31948 2.70164-3.46942 4.29151-38.50673-31.79504-57.30867-51.12012-57.49055-1.13352-.0107-2.78023.76609-3.50116,1.36176z" fill="url(#linearGradient4571)" stroke="url(#linearGradient4579)"/>
<path d="m773.46875,190.75c-.25354.11601-.84671.68771-2.84375,2.0625-.8648.59534-3.76662,1.54684-1.625,3.28125 8.84028,2.13432 25.71153,6.4612 35.77679,15.73661 10.58859,9.75768 15.92405,26.09222 17.00446,43.07589 2.49204-1.93822 3.76188-3.12252 5.5-5.65625 .38492-9.44511-4.3758-27.45736-13.28125-38.40179-9.00507-11.06685-25.24507-18.23962-40.53125-20.09821z" fill="#520" filter="url(#filter4626)" transform="translate(40,-60)"/>
<path d="m811.34677,132.36009c-.18661.33597-.29545.41668-.93941.87818 9.10559,2.78521 20.17161,5.80794 30.63658,12.92569 13.57556,9.2334 22.84911,32.45401 23.52459,48.39473 .41497-.53864.34011-.78096.78601-.56439 .00083-8.21084-5.06986-28.65491-12.69899-39.0982-7.20122-9.85752-23.85563-21.41361-41.30878-22.53601z"/>
<path d="m804.767,139.91938c13.73845,1.22584 31.04036,8.94903 39.52029,18.6833 8.79293,10.09357 12.72327,25.72312 10.42016,40.2832 .41497-.53864 1.46573-1.73882 1.9116-1.52225 2.89758-8.08457-1.89158-28.55005-10.15752-38.70855-8.36272-10.27743-25.7861-17.29116-39.67811-19.3632 .83662-.33507-3.06212.22465-2.01642.6275z" fill="#2b1100" filter="url(#filter4641)"/>
<path d="m857.92119,105.98392c.11087-.3777.80877-.33914 1.31014-1.04713 4.36305-2.90331 6.41159-6.318 9.53653-11.71057 34.27211-1.72726 51.42483,28.66955 50.38621,46.68357-5.75228,1.4038-10.76581,6.03174-16.57028,9.19661 .87555-.43566 1.81924-1.91617 1.79267-2.74815-.78113-24.45265-29.41631-39.29559-43.47754-41.35386-.94998-.13905-2.36458.55106-2.97773.97953z" fill="url(#linearGradient4647)" stroke="url(#linearGradient4649)"/>
<path d="m857.92119,105.98392c.11087-.3777.80877-.33914 1.31014-1.04713 4.36305-2.90331 5.78024-5.18158 8.90518-10.57415 34.40078-2.23529 51.72123,27.81487 50.25995,46.30476-5.75228,1.4038-10.0082,5.27413-15.81267,8.439 .87555-.43566 1.76156-1.91633 1.79267-2.74815 .95348-25.49342-28.92098-39.59279-43.47754-41.35386-.95315-.11531-2.36458.55106-2.97773.97953z" fill="url(#radialGradient4865)"/>
<path d="m875.52242,95.53613c6.90938,1.07421 15.61821,6.05239 20.58186,10.41719l-8.83883,8.71257c-5.47108-3.69054-10.98793-7.70649-18.43529-9.09137 2.55915-2.50345 5.80222-6.8673 6.69226-10.03839z" fill="url(#linearGradient4742)" filter="url(#filter4738)"/>
<path d="m864.15821,106.71095c6.72713,1.98543 14.70662,5.87524 19.82425,9.47017l-34.724,27.14785c-4.51818-4.0717-11.14775-9.51134-18.56155-11.61676 2.55915-2.50345 29.16199-21.7039 33.4613-25.00126z" fill="url(#linearGradient4756)" filter="url(#filter4738)"/>
<path d="m865.79971,111.13037c6.72713,1.98543 5.11016,2.21344 10.22779,5.80837l-28.66308,22.34963c-3.1657-2.34481-4.35185-3.80983-9.3439-5.80839 2.55915-2.50345 25.24765-20.0624 27.77919-22.34961z" fill="url(#linearGradient4756)"/>
<path d="m878.80542,98.06151c5.5907,1.73289 9.02451,3.53927 14.14214,7.1342-1.54383,3.25691-5.01425,5.74513-7.70242,7.19734-4.93146-3.71375-6.26625-4.48465-12.50064-6.566 2.55915-2.50345 4.91834-4.84699 6.06092-7.76554z" fill="url(#linearGradient4742)"/>
<path d="m822.63364,145.50094c5.29856,3.05686 6.60373,3.79891 10.30176,6.62725l-147.55252,112.8502c-3.07642-2.96981-4.70899-4.29958-8.43835-6.80322 2.55915-2.50345 143.15757-110.38702 145.68911-112.67423z" fill="url(#linearGradient4789)"/>
<path d="m836.91101,134.3676c4.22713,1.98543 5.37802,3.10629 10.04922,6.34408l-1.6415,1.2627c-3.1657-2.34481-4.53042-3.27412-9.3439-5.80839 .32701-.27131.81536-1.02904.93618-1.79839z" fill="url(#linearGradient4803)" filter="url(#filter4805)"/>
<path d="m828.38292,141.88291c4.22713,1.98543 5.37802,3.10629 10.04922,6.34408l-1.6415,1.2627c-3.1657-2.34481-4.53042-3.27412-9.3439-5.80839 .32701-.27131.81536-1.02904.93618-1.79839z" fill="url(#linearGradient4811)" filter="url(#filter4805)"/>
<path d="m673.23761,260.4237c3.60213,2.07472 4.57445,3.28486 8.70994,6.61194l-9.1415,6.8877c-3.1657-2.34481-4.26257-3.89912-9.07605-6.43339 .32701-.27131 8.67251-6.47547 9.50761-7.06625z" fill="url(#linearGradient4815)" filter="url(#filter4805)"/>
<path d="m658.22538,270.2484c5.29856,3.05686 6.60373,3.79891 10.30176,6.62725l-159.67435,123.51994c-3.07642-2.96981-5.65415-6.04382-9.38351-8.54746 2.55915-2.50345 156.22456-119.31252 158.7561-121.59973z" fill="url(#linearGradient4819)"/>
<path d="m478.95919,407.50659c5.29856,3.05686 6.24659,5.58463 9.94462,8.41297l-130.38863,99.59137c-3.07642-2.96981-7.08272-6.75811-10.81208-9.26175 2.55915-2.50345 128.72455-96.45538 131.25609-98.74259z" fill="url(#linearGradient4823)"/>
<path d="m495.1549,395.00858c3.60213,2.07472 5.64587,4.35628 9.78136,7.68336l-12.35578,8.67342c-3.1657-2.34481-4.26257-4.25626-9.07605-6.79053-1.10156.44297 10.81537-8.97547 11.65047-9.56625z" fill="url(#linearGradient4840)" filter="url(#filter4805)"/>
</g>
</svg>
